<svg width="33" height="40" viewBox="0 0 33 40" fill="none" xmlns="http://www.w3.org/2000/svg">
<path d="M3.79 6.33H4.33C4.83 6.33 5.19 6.17333 5.41 5.86L8.69 1.1C8.88333 0.846666 9.09 0.673333 9.31 0.58C9.53667 0.48 9.81667 0.43 10.15 0.43H13.09L8.77 6.32C8.46333 6.72667 8.13333 7.02 7.78 7.2C8.03333 7.29333 8.26333 7.42333 8.47 7.59C8.67667 7.75667 8.87 7.97333 9.05 8.24L13.45 15H10.43C10.2367 15 10.07 14.9867 9.93 14.96C9.79667 14.9333 9.68 14.8933 9.58 14.84C9.48 14.7867 9.39333 14.7233 9.32 14.65C9.24667 14.57 9.17667 14.48 9.11 14.38L5.81 9.31C5.69 9.12333 5.53667 8.99333 5.35 8.92C5.17 8.84 4.92333 8.8 4.61 8.8H3.79V15H0.41V0.43H3.79V6.33ZM18.2284 4.47C19.0151 4.47 19.7318 4.59333 20.3784 4.84C21.0251 5.08667 21.5784 5.44 22.0384 5.9C22.5051 6.36 22.8651 6.92 23.1184 7.58C23.3784 8.23333 23.5084 8.97 23.5084 9.79C23.5084 10.6167 23.3784 11.3633 23.1184 12.03C22.8651 12.69 22.5051 13.2533 22.0384 13.72C21.5784 14.18 21.0251 14.5367 20.3784 14.79C19.7318 15.0367 19.0151 15.16 18.2284 15.16C17.4351 15.16 16.7118 15.0367 16.0584 14.79C15.4118 14.5367 14.8518 14.18 14.3784 13.72C13.9118 13.2533 13.5484 12.69 13.2884 12.03C13.0351 11.3633 12.9084 10.6167 12.9084 9.79C12.9084 8.97 13.0351 8.23333 13.2884 7.58C13.5484 6.92 13.9118 6.36 14.3784 5.9C14.8518 5.44 15.4118 5.08667 16.0584 4.84C16.7118 4.59333 17.4351 4.47 18.2284 4.47ZM18.2284 12.86C18.9418 12.86 19.4651 12.61 19.7984 12.11C20.1384 11.6033 20.3084 10.8367 20.3084 9.81C20.3084 8.78333 20.1384 8.02 19.7984 7.52C19.4651 7.02 18.9418 6.77 18.2284 6.77C17.4951 6.77 16.9584 7.02 16.6184 7.52C16.2784 8.02 16.1084 8.78333 16.1084 9.81C16.1084 10.8367 16.2784 11.6033 16.6184 12.11C16.9584 12.61 17.4951 12.86 18.2284 12.86ZM19.4878 35.23C19.5678 35.23 19.6478 35.2467 19.7278 35.28C19.8078 35.3067 19.8845 35.3567 19.9578 35.43L21.2978 36.84C20.7111 37.6067 19.9745 38.1867 19.0878 38.58C18.2078 38.9667 17.1645 39.16 15.9578 39.16C14.8511 39.16 13.8578 38.9733 12.9778 38.6C12.1045 38.22 11.3611 37.7 10.7478 37.04C10.1411 36.3733 9.67448 35.5867 9.34781 34.68C9.02115 33.7667 8.85781 32.7767 8.85781 31.71C8.85781 30.6233 9.03448 29.6267 9.38781 28.72C9.74115 27.8067 10.2378 27.02 10.8778 26.36C11.5178 25.7 12.2845 25.1867 13.1778 24.82C14.0711 24.4533 15.0545 24.27 16.1278 24.27C16.6745 24.27 17.1878 24.32 17.6678 24.42C18.1545 24.5133 18.6078 24.6467 19.0278 24.82C19.4478 24.9867 19.8345 25.19 20.1878 25.43C20.5411 25.67 20.8545 25.93 21.1278 26.21L19.9878 27.74C19.9145 27.8333 19.8278 27.92 19.7278 28C19.6278 28.0733 19.4878 28.11 19.3078 28.11C19.1878 28.11 19.0745 28.0833 18.9678 28.03C18.8611 27.9767 18.7478 27.9133 18.6278 27.84C18.5078 27.76 18.3745 27.6767 18.2278 27.59C18.0878 27.4967 17.9178 27.4133 17.7178 27.34C17.5245 27.26 17.2945 27.1933 17.0278 27.14C16.7678 27.0867 16.4611 27.06 16.1078 27.06C15.5478 27.06 15.0345 27.1633 14.5678 27.37C14.1078 27.5767 13.7078 27.88 13.3678 28.28C13.0345 28.6733 12.7745 29.16 12.5878 29.74C12.4078 30.3133 12.3178 30.97 12.3178 31.71C12.3178 32.4567 12.4178 33.12 12.6178 33.7C12.8245 34.28 13.1011 34.77 13.4478 35.17C13.8011 35.5633 14.2111 35.8633 14.6778 36.07C15.1445 36.2767 15.6445 36.38 16.1778 36.38C16.4845 36.38 16.7645 36.3667 17.0178 36.34C17.2711 36.3067 17.5078 36.2567 17.7278 36.19C17.9478 36.1167 18.1545 36.0233 18.3478 35.91C18.5411 35.79 18.7378 35.64 18.9378 35.46C19.0178 35.3933 19.1045 35.34 19.1978 35.3C19.2911 35.2533 19.3878 35.23 19.4878 35.23ZM26.9784 28.47C27.7651 28.47 28.4818 28.5933 29.1284 28.84C29.7751 29.0867 30.3284 29.44 30.7884 29.9C31.2551 30.36 31.6151 30.92 31.8684 31.58C32.1284 32.2333 32.2584 32.97 32.2584 33.79C32.2584 34.6167 32.1284 35.3633 31.8684 36.03C31.6151 36.69 31.2551 37.2533 30.7884 37.72C30.3284 38.18 29.7751 38.5367 29.1284 38.79C28.4818 39.0367 27.7651 39.16 26.9784 39.16C26.1851 39.16 25.4618 39.0367 24.8084 38.79C24.1618 38.5367 23.6018 38.18 23.1284 37.72C22.6618 37.2533 22.2984 36.69 22.0384 36.03C21.7851 35.3633 21.6584 34.6167 21.6584 33.79C21.6584 32.97 21.7851 32.2333 22.0384 31.58C22.2984 30.92 22.6618 30.36 23.1284 29.9C23.6018 29.44 24.1618 29.0867 24.8084 28.84C25.4618 28.5933 26.1851 28.47 26.9784 28.47ZM26.9784 36.86C27.6918 36.86 28.2151 36.61 28.5484 36.11C28.8884 35.6033 29.0584 34.8367 29.0584 33.81C29.0584 32.7833 28.8884 32.02 28.5484 31.52C28.2151 31.02 27.6918 30.77 26.9784 30.77C26.2451 30.77 25.7084 31.02 25.3684 31.52C25.0284 32.02 24.8584 32.7833 24.8584 33.81C24.8584 34.8367 25.0284 35.6033 25.3684 36.11C25.7084 36.61 26.2451 36.86 26.9784 36.86Z" fill="white" fill-opacity="0.9"/>
</svg>
